<svg width="12" height="14" viewBox="0 0 12 14" fill="none" xmlns="http://www.w3.org/2000/svg">
<path d="M5.10185 12.6202C5.34277 12.8638 5.66477 13 5.99989 13C6.33501 13 6.65701 12.8638 6.89793 12.6202C9.10407 10.3756 12.0606 7.86815 10.6188 4.2278C9.83921 2.25949 7.9679 1 5.99989 1C4.03188 1 2.16057 2.25949 1.381 4.2278C-0.0589784 7.86356 2.89027 10.3833 5.10185 12.6202Z" stroke="white"/>
<path d="M4 6C4 7.10457 4.89543 8 6 8C7.10457 8 8 7.10457 8 6C8 4.89543 7.10457 4 6 4C4.89543 4 4 4.89543 4 6Z" stroke="white"/>
</svg>
