<svg width="24" height="24" viewBox="0 0 22 22" fill="none" xmlns="http://www.w3.org/2000/svg">
<g clip-path="url(#clip0_52_1081)">
<path d="M14.0001 16C13.2006 16.6224 12.1504 17 11.0001 17C9.84988 17 8.79965 16.6224 8.00012 16" stroke="#F7F9FC" stroke-width="1.5" stroke-linecap="round"/>
<path d="M1.35151 12.2135C0.998493 9.91624 0.821983 8.76763 1.25629 7.74938C1.69059 6.73112 2.65415 6.03443 4.58126 4.64106L6.02111 3.6C8.41841 1.86667 9.61706 1 11.0001 1C12.3832 1 13.5818 1.86667 15.9791 3.6L17.419 4.64106C19.3461 6.03443 20.3097 6.73112 20.744 7.74938C21.1783 8.76763 21.0018 9.91624 20.6487 12.2135L20.3477 14.1724C19.8473 17.4289 19.597 19.0572 18.4291 20.0286C17.2612 21 15.5538 21 12.1389 21H9.86131C6.44646 21 4.73903 21 3.57112 20.0286C2.40321 19.0572 2.15299 17.4289 1.65255 14.1724L1.35151 12.2135Z" stroke="#F7F9FC" stroke-width="1.5" stroke-linejoin="round"/>
</g>
<defs>
<clipPath id="clip0_52_1081">
<rect width="24" height="24" fill="white"/>
</clipPath>
</defs>
</svg>
