<svg width="16" height="16" viewBox="0 0 16 16" fill="none" xmlns="http://www.w3.org/2000/svg">
<path d="M4.66663 12C3.44734 12.2745 2.66663 12.6962 2.66663 13.1691C2.66663 13.9962 5.05444 14.6667 7.99996 14.6667C10.9455 14.6667 13.3333 13.9962 13.3333 13.1691C13.3333 12.6962 12.5526 12.2745 11.3333 12" stroke="#2A353D" stroke-linecap="round"/>
<path d="M9.66659 5.99999C9.66659 6.92047 8.92039 7.66666 7.99992 7.66666C7.07944 7.66666 6.33325 6.92047 6.33325 5.99999C6.33325 5.07952 7.07944 4.33333 7.99992 4.33333C8.92039 4.33333 9.66659 5.07952 9.66659 5.99999Z" stroke="#2A353D"/>
<path d="M8.83819 11.6624C8.61333 11.8789 8.3128 12 8.00002 12C7.68725 12 7.38671 11.8789 7.16185 11.6624C5.10279 9.66719 2.34338 7.43835 3.68906 4.20248C4.41666 2.45288 6.16321 1.33333 8.00002 1.33333C9.83683 1.33333 11.5834 2.45288 12.311 4.20248C13.655 7.43427 10.9023 9.67406 8.83819 11.6624Z" stroke="#2A353D"/>
</svg>
