<svg width="10" height="12" viewBox="0 0 10 12" fill="none" xmlns="http://www.w3.org/2000/svg">
<path d="M1.144 9.46692C1.25697 10.306 1.95196 10.9633 2.7977 11.0022C3.50936 11.0349 4.23228 11.052 5.02837 11.052C5.82447 11.052 6.54738 11.0349 7.25904 11.0022C8.10478 10.9633 8.79977 10.306 8.91275 9.46692C8.98648 8.91931 9.04728 8.35814 9.04728 7.78664C9.04728 7.21514 8.98648 6.65396 8.91275 6.10636C8.79977 5.26729 8.10478 4.60993 7.25904 4.57105C6.54738 4.53834 5.82447 4.52127 5.02837 4.52127C4.23228 4.52127 3.50936 4.53834 2.7977 4.57105C1.95196 4.60993 1.25697 5.26729 1.144 6.10636C1.07027 6.65396 1.00946 7.21514 1.00946 7.78664C1.00946 8.35814 1.07027 8.91931 1.144 9.46692Z" stroke="#2A353D" stroke-width="1.5"/>
<path d="M2.76776 4.52128V3.26537C2.76776 2.01685 3.77988 1.00473 5.0284 1.00473C6.27691 1.00473 7.28904 2.01685 7.28904 3.26537V4.52128" stroke="#2A353D" stroke-width="1.5" stroke-linecap="round" stroke-linejoin="round"/>
<path d="M5.02637 7.78665H5.03088" stroke="#2A353D" stroke-width="1.5" stroke-linecap="round" stroke-linejoin="round"/>
</svg>
